Coordinates
version=1
nRows=17
nColumns=36
inDegrees=yes

Units are S.I. units (second, meters, Newtons, ...)
If the header above contains a line with 'inDegrees', this indicates whether rotational values are in degrees (yes) or radians (no).

endheader
time	pelvis_tilt	pelvis_list	pelvis_rotation	pelvis_tx	pelvis_ty	pelvis_tz	hip_flexion_r	hip_adduction_r	hip_rotation_r	knee_angle_r	knee_angle_r_beta	ankle_angle_r	subtalar_angle_r	mtp_angle_r	hip_flexion_l	hip_adduction_l	hip_rotation_l	knee_angle_l	knee_angle_l_beta	ankle_angle_l	subtalar_angle_l	mtp_angle_l	lumbar_extension	lumbar_bending	lumbar_rotation	arm_flex_r	arm_add_r	arm_rot_r	elbow_flex_r	pro_sup_r	arm_flex_l	arm_add_l	arm_rot_l	elbow_flex_l	pro_sup_l
      0.00000000	      9.64978246	     -2.37944590	     -1.05294861	     -0.54980687	      0.58233788	     -0.60382069	     73.62139395	     -7.80476363	      3.19068350	     96.51310073	      1.68447138	     13.79669083	    -11.61478732	     -4.98396095	     75.26602545	     -7.57821477	      7.53016842	     98.55981475	      1.72019328	     15.95625425	     -3.58394339	     -4.98396095	    -27.12684169	      1.56080409	     -1.94444024	     -3.48259613	    -10.93959227	      8.79422629	    130.55500093	    106.00963439	     -4.55776908	     -7.29601254	      6.60594458	    127.39414299	     96.37792396
      0.01000000	      9.66160432	     -2.37110872	     -1.08446696	     -0.54985220	      0.58242075	     -0.60380218	     73.61285827	     -7.74970495	      3.22870391	     96.49749176	      1.68419895	     13.63574288	    -11.90328488	     -5.64792899	     75.22940375	     -7.59640582	      7.53904868	     98.53083225	      1.71968744	     16.28598855	     -3.23302236	     -5.64792899	    -27.15802226	      1.53949037	     -2.31574987	     -3.06439273	    -10.99758928	      9.21694322	    130.10999775	    107.48530026	     -4.88543158	     -7.23334993	      5.97986873	    127.30923102	     99.35384010
      0.02000000	      9.65824275	     -2.35570312	     -1.06321090	     -0.54989010	      0.58248056	     -0.60386217	     73.62752475	     -7.77269290	      3.25134206	     96.50602836	      1.68434794	     13.70286978	    -11.80919145	     -5.87830981	     75.23685959	     -7.54548893	      7.55878703	     98.49521909	      1.71906587	     16.20518755	     -3.25321958	     -5.87830981	    -27.18774153	      1.53116521	     -2.35358913	     -3.05982934	    -10.99065592	      9.20252439	    130.10622165	    107.49783738	     -4.88466719	     -7.24610511	      6.00243964	    127.39953523	     98.88285866
      0.03000000	      9.63439206	     -2.36520469	     -1.07593552	     -0.54991054	      0.58251255	     -0.60379547	     73.66619179	     -7.72567530	      3.23513229	     96.48356953	      1.68395596	     13.15262142	    -12.47532221	     -5.97137502	     75.28579701	     -7.59237179	      7.57595709	     98.50131799	      1.71917232	     16.33552572	     -2.88666791	     -5.97137502	    -27.20060092	      1.54031321	     -2.27227427	     -3.11676531	    -10.96242848	      9.11888493	    130.20650972	    107.03484967	     -4.83487124	     -7.28977046	      6.15399402	    127.49378634	     97.49965081
      0.04000000	      9.68633792	     -2.32172628	     -1.07123854	     -0.54993259	      0.58268184	     -0.60378725	     73.60250930	     -7.75689868	      3.29535796	     96.50237356	      1.68428415	     13.72084682	    -11.86357641	     -6.19461727	     75.24185874	     -7.63798157	      7.44748571	     98.49239437	      1.71901657	     16.17486519	     -3.09652466	     -6.19461727	    -27.32166484	      1.49653047	     -2.35690534	     -3.06439847	    -10.98240991	      9.31539390	    130.07707563	    107.11015895	     -4.86200534	     -7.26527528	      5.90915816	    127.47089122	     99.23595843
      0.05000000	      9.64504635	     -2.31926613	     -1.07280124	     -0.54992894	      0.58268836	     -0.60377042	     73.61858917	     -7.73074556	      3.31951668	     96.46609084	      1.68365090	     13.59616701	    -11.98855079	     -6.53206995	     75.30459239	     -7.67097374	      7.41135903	     98.50071666	      1.71916182	     16.09711323	     -3.04394709	     -6.53206995	    -27.32596814	      1.49291388	     -2.37246301	     -3.05179685	    -10.98923411	      9.26825465	    130.10451952	    107.04517002	     -4.91292172	     -7.26933453	      5.94595019	    127.37599444	     99.35475565
      0.06000000	      9.62392496	     -2.32158520	     -1.03745183	     -0.54997190	      0.58267832	     -0.60380232	     73.64143696	     -7.75556784	      3.29308518	     96.45870085	      1.68352192	     13.53118852	    -12.09194174	     -6.68969830	     75.32944181	     -7.60476113	      7.47838164	     98.48732260	      1.71892805	     16.12548823	     -2.94742040	     -6.68969830	    -27.38882544	      1.50470644	     -2.41695864	     -3.03133609	    -11.00326045	      9.30310840	    130.06713810	    106.49774193	     -4.87275338	     -7.31241224	      5.90301347	    127.32525353	     99.72339037
      0.07000000	      9.58854625	     -2.29225170	     -1.00711617	     -0.55005128	      0.58269733	     -0.60382350	     73.64669459	     -7.77517673	      3.33071226	     96.41018964	      1.68267524	     13.51219746	    -12.03771954	     -6.73647744	     75.35020429	     -7.54921786	      7.47144635	     98.43498098	      1.71801452	     15.90197748	     -3.07968781	     -6.73647744	    -27.44697083	      1.49316002	     -2.41726360	     -3.00506443	    -10.90556360	      9.28509396	    130.28421706	    105.48201434	     -4.80040319	     -7.29325388	      5.87925738	    127.43023982	     98.84960472
      0.08000000	      9.60319863	     -2.45318215	     -1.08037254	     -0.55020846	      0.58286547	     -0.60373643	     73.56152307	     -7.58359727	      3.18962384	     96.30862493	      1.68090260	     13.27246357	    -12.45314909	     -6.82378142	     75.33730539	     -7.67744194	      7.65337843	     98.44749219	      1.71823288	     16.23982041	     -2.79517572	     -6.82378142	    -27.56327598	      1.61896349	     -2.31063360	     -2.92792855	    -11.02046582	      9.36025844	    130.15766768	    105.77220731	     -4.80949982	     -7.31964901	      5.92547759	    127.40214450	     99.38630554
      0.09000000	      9.67827836	     -2.51806830	     -1.21038254	     -0.55056227	      0.58319259	     -0.60356399	     73.46125673	     -7.36333633	      3.29373506	     96.23093098	      1.67954659	     13.34324349	    -12.07121752	     -6.90013254	     75.24099320	     -7.82713636	      7.68056858	     98.41730303	      1.71770598	     16.10721927	     -3.00431503	     -6.90013254	    -27.80344483	      1.61924726	     -2.12392264	     -2.87640523	    -11.06533798	      9.24162714	    130.14538419	    106.61397770	     -4.67542888	     -7.33668339	      5.94141649	    127.22213074	    100.54649088
      0.10000000	      9.67409290	     -2.58753459	     -1.33350001	     -0.55078119	      0.58339021	     -0.60334913	     73.46187697	     -7.11998674	      3.44193202	     96.22093720	      1.67937216	     13.36252014	    -11.74177252	     -7.00814546	     75.21728071	     -7.97696435	      7.74465833	     98.36936902	      1.71686937	     16.16352997	     -2.86336867	     -7.00814546	    -27.93724288	      1.61037307	     -1.95113884	     -2.80609989	    -11.12510723	      9.20654464	    130.13291427	    106.61970684	     -4.55900643	     -7.37978720	      6.06791411	    127.31159826	     99.66856766
      0.11000000	      9.61895490	     -2.58018399	     -1.33816438	     -0.55078180	      0.58346736	     -0.60340463	     73.51175980	     -7.07331262	      3.55900903	     96.20947784	      1.67917216	     13.39962671	    -11.60773190	     -7.03295417	     75.26045435	     -7.93925679	      7.75361431	     98.34984064	      1.71652854	     16.00485579	     -3.00506722	     -7.03295417	    -28.02085073	      1.59652049	     -1.97153776	     -2.76904706	    -11.12695069	      9.29184704	    130.24137630	    105.32926986	     -4.51306029	     -7.44857568	      6.11727051	    127.41466778	     98.74202723
      0.12000000	      9.57805151	     -2.56857552	     -1.32234744	     -0.55075494	      0.58353385	     -0.60353779	     73.53887848	     -7.07433131	      3.58982396	     96.19213272	      1.67886943	     13.39644070	    -11.61721739	     -7.04753182	     75.28548117	     -7.86143286	      7.76218144	     98.33516400	      1.71627238	     15.92232469	     -3.11939984	     -7.04753182	    -28.12830120	      1.60255667	     -1.99102233	     -2.71916465	    -11.13620860	      9.32365008	    130.28304491	    104.86176557	     -4.43017184	     -7.50984073	      6.18783149	    127.47229467	     98.26384660
      0.13000000	      9.52289984	     -2.55499018	     -1.29871048	     -0.55075308	      0.58354756	     -0.60363684	     73.57437849	     -7.08149999	      3.62184758	     96.17228521	      1.67852303	     13.41657140	    -11.57861317	     -7.07128937	     75.33879463	     -7.77307346	      7.78033080	     98.32039329	      1.71601458	     15.83151322	     -3.27611922	     -7.07128937	    -28.24109026	      1.60394865	     -2.01739156	     -2.66560999	    -11.15480204	      9.36745199	    130.37992161	    103.89987980	     -4.37183688	     -7.55650027	      6.29949374	    127.60222652	     97.44832761
      0.14000000	      9.47314670	     -2.53943437	     -1.28508389	     -0.55073255	      0.58355068	     -0.60370030	     73.60709788	     -7.07252490	      3.67508016	     96.15461365	      1.67821460	     13.45829059	    -11.54710145	     -7.09239202	     75.38591635	     -7.71082383	      7.79702334	     98.32155786	      1.71603491	     15.78172172	     -3.39388702	     -7.09239202	    -28.35862952	      1.62628288	     -2.02497652	     -2.60157022	    -11.20871752	      9.41020391	    130.45339875	    102.81716214	     -4.31465033	     -7.60418798	      6.38884048	    127.73001638	     96.69416440
      0.15000000	      9.42805385	     -2.53490372	     -1.29375057	     -0.55072695	      0.58357660	     -0.60372314	     73.63066626	     -7.06143166	      3.68195426	     96.11535758	      1.67752945	     13.50879102	    -11.58801745	     -7.10913202	     75.42739137	     -7.69900672	      7.80320820	     98.31519203	      1.71592381	     15.84269937	     -3.41741034	     -7.10913202	    -28.51802986	      1.62872512	     -1.99910300	     -2.48848877	    -11.29155009	      9.48391709	    130.45321521	    102.39557745	     -4.15949777	     -7.72711032	      6.53087440	    127.82598234	     96.31381911
      0.16000000	      9.36370040	     -2.52361056	     -1.29864548	     -0.55071163	      0.58361634	     -0.60372744	     73.67687837	     -7.04187532	      3.70570678	     96.08338433	      1.67697141	     13.57844348	    -11.51168491	     -7.15684912	     75.47545011	     -7.68881182	      7.81478823	     98.29975042	      1.71565430	     16.04493942	     -3.06014183	     -7.15684912	    -28.67131219	      1.60974072	     -1.96454483	     -2.39009224	    -11.32297743	      9.25771654	    130.08864019	    106.33349187	     -3.97212382	     -7.82978077	      6.41368061	    127.36240626	     99.74298004
